<svg xmlns="http://www.w3.org/2000/svg" viewBox="0 0 355 316.04"><defs><style>.cls-1{fill:#7cb305;}</style></defs><g id="Layer_2" data-name="Layer 2"><g id="Layer_1-2" data-name="Layer 1"><path class="cls-1" d="M140.49,1.27,257.94,306.06a.93.93,0,0,0,1.28.51c7.6-3.69,59.24-31.35,39.79-92.54l0-.06L218.23.61a.94.94,0,0,0-.88-.61h-76A.94.94,0,0,0,140.49,1.27Z"/><circle class="cls-1" cx="317" cy="38" r="38"/><path class="cls-1" d="M24,0a.92.92,0,0,0-.87,1.26C29.07,16.42,87,163.87,106,216.36c25.87,68.89,2.61,91.2-10,97.94a.93.93,0,0,0,.58,1.73c25.84-4,108.26-23.29,85.11-102l0-.08L100.83.6A.92.92,0,0,0,100,0Z"/><circle class="cls-1" cx="38" cy="278" r="38"/></g></g></svg>